<svg width="94" height="50" viewBox="0 0 94 50" fill="none" xmlns="http://www.w3.org/2000/svg">
<path d="M10 5C15.5228 5 20 9.47715 20 15C20 20.5228 15.5228 25 10 25C4.47715 25 0 20.5228 0 15C0 9.47715 4.47715 5 10 5ZM10 10.9667C14.1841 10.9667 17.5759 19.1841 17.5759 15C17.5759 10.8159 14.1841 7.42409 10 7.42409C5.81594 7.42409 2.42409 10.8159 2.42409 15C2.42409 19.1841 5.81594 10.9667 10 10.9667Z" fill="black"/>
<path d="M29.0327 9H25.5827V6H35.7827V9H32.3327V27H29.0327V9ZM37.3804 6H40.6804V14.55H44.2204V6H47.5204V27H44.2204V17.55H40.6804V27H37.3804V6ZM49.978 6H53.278V27H49.978V6ZM55.7495 6H60.4595L62.5595 21.03H62.6195L64.7195 6H69.4295V27H66.3095V11.1H66.2495L63.8495 27H61.0895L58.6895 11.1H58.6295V27H55.7495V6ZM74.4421 6H78.9121L82.3321 27H79.0321L78.4321 22.83V22.89H74.6821L74.0821 27H71.0221L74.4421 6ZM78.0421 20.04L76.5721 9.66H76.5121L75.0721 20.04H78.0421ZM88.1352 27.3C86.5352 27.3 85.3252 26.85 84.5052 25.95C83.6852 25.03 83.2752 23.72 83.2752 22.02V20.82H86.3952V22.26C86.3952 23.62 86.9652 24.3 88.1052 24.3C88.6652 24.3 89.0852 24.14 89.3652 23.82C89.6652 23.48 89.8152 22.94 89.8152 22.2C89.8152 21.32 89.6152 20.55 89.2152 19.89C88.8152 19.21 88.0752 18.4 86.9952 17.46C85.6352 16.26 84.6852 15.18 84.1452 14.22C83.6052 13.24 83.3352 12.14 83.3352 10.92C83.3352 9.26 83.7552 7.98 84.5952 7.08C85.4352 6.16 86.6552 5.7 88.2552 5.7C89.8352 5.7 91.0252 6.16 91.8252 7.08C92.6452 7.98 93.0552 9.28 93.0552 10.98V11.85H89.9352V10.77C89.9352 10.05 89.7952 9.53 89.5152 9.21C89.2352 8.87 88.8252 8.7 88.2852 8.7C87.1852 8.7 86.6352 9.37 86.6352 10.71C86.6352 11.47 86.8352 12.18 87.2352 12.84C87.6552 13.5 88.4052 14.3 89.4852 15.24C90.8652 16.44 91.8152 17.53 92.3352 18.51C92.8552 19.49 93.1152 20.64 93.1152 21.96C93.1152 23.68 92.6852 25 91.8252 25.92C90.9852 26.84 89.7552 27.3 88.1352 27.3Z" fill="black"/>
<path d="M38.2528 34.5H40.4878L42.1978 45H40.5478L40.2478 42.915V42.945H38.3728L38.0728 45H36.5428L38.2528 34.5ZM40.0528 41.52L39.3178 36.33H39.2878L38.5678 41.52H40.0528ZM45.294 45.15C44.504 45.15 43.899 44.925 43.479 44.475C43.069 44.025 42.864 43.39 42.864 42.57V36.93C42.864 36.11 43.069 35.475 43.479 35.025C43.899 34.575 44.504 34.35 45.294 34.35C46.084 34.35 46.684 34.575 47.094 35.025C47.514 35.475 47.724 36.11 47.724 36.93V38.04H46.164V36.825C46.164 36.175 45.889 35.85 45.339 35.85C44.789 35.85 44.514 36.175 44.514 36.825V42.69C44.514 43.33 44.789 43.65 45.339 43.65C45.889 43.65 46.164 43.33 46.164 42.69V41.085H47.724V42.57C47.724 43.39 47.514 44.025 47.094 44.475C46.684 44.925 46.084 45.15 45.294 45.15ZM49.9862 34.5H52.2212L53.9312 45H52.2812L51.9812 42.915V42.945H50.1062L49.8062 45H48.2762L49.9862 34.5ZM51.7862 41.52L51.0512 36.33H51.0212L50.3012 41.52H51.7862ZM54.7317 34.5H57.2517C58.0717 34.5 58.6867 34.72 59.0967 35.16C59.5067 35.6 59.7117 36.245 59.7117 37.095V42.405C59.7117 43.255 59.5067 43.9 59.0967 44.34C58.6867 44.78 58.0717 45 57.2517 45H54.7317V34.5ZM57.2217 43.5C57.4917 43.5 57.6967 43.42 57.8367 43.26C57.9867 43.1 58.0617 42.84 58.0617 42.48V37.02C58.0617 36.66 57.9867 36.4 57.8367 36.24C57.6967 36.08 57.4917 36 57.2217 36H56.3817V43.5H57.2217ZM60.8254 34.5H65.3254V36H62.4754V38.775H64.7404V40.275H62.4754V43.5H65.3254V45H60.8254V34.5ZM66.2747 34.5H68.6297L69.6797 42.015H69.7097L70.7597 34.5H73.1147V45H71.5547V37.05H71.5247L70.3247 45H68.9447L67.7447 37.05H67.7147V45H66.2747V34.5ZM74.346 34.5H75.996V45H74.346V34.5ZM78.5067 34.5H80.7417L82.4517 45H80.8017L80.5017 42.915V42.945H78.6267L78.3267 45H76.7967L78.5067 34.5ZM80.3067 41.52L79.5717 36.33H79.5417L78.8217 41.52H80.3067Z" fill="#ff4500"/>
</svg>
